<svg width="200" height="54" viewBox="0 0 200 54" fill="none" xmlns="http://www.w3.org/2000/svg">
<rect y="18.332" width="33.3333" height="33.3333" fill="#EE1C24"/>
<path d="M16.6667 1.66602L33.3333 18.3327H0L16.6667 1.66602Z" fill="#EE1C24"/>
<path d="M25.6433 32.969C25.6433 35.0398 25.2645 36.8201 24.5069 38.31C23.7493 39.7935 22.7108 40.9362 21.3914 41.738C20.0783 42.5334 18.5852 42.9312 16.9122 42.9312C15.2329 42.9312 13.7336 42.5334 12.4141 41.738C11.101 40.9362 10.0656 39.7904 9.30806 38.3005C8.55049 36.8106 8.1717 35.0334 8.1717 32.969C8.1717 30.8983 8.55049 29.1212 9.30806 27.6376C10.0656 26.1477 11.101 25.005 12.4141 24.2096C13.7336 23.4078 15.2329 23.0069 16.9122 23.0069C18.5852 23.0069 20.0783 23.4078 21.3914 24.2096C22.7108 25.005 23.7493 26.1477 24.5069 27.6376C25.2645 29.1212 25.6433 30.8983 25.6433 32.969ZM22.7456 32.969C22.7456 31.3908 22.4899 30.0618 21.9785 28.9823C21.4735 27.8964 20.779 27.0757 19.8952 26.5202C19.0177 25.9583 18.0233 25.6774 16.9122 25.6774C15.7948 25.6774 14.7973 25.9583 13.9198 26.5202C13.0423 27.0757 12.3478 27.8964 11.8365 28.9823C11.3314 30.0618 11.0789 31.3908 11.0789 32.969C11.0789 34.5473 11.3314 35.8794 11.8365 36.9653C12.3478 38.0448 13.0423 38.8655 13.9198 39.4274C14.7973 39.9829 15.7948 40.2607 16.9122 40.2607C18.0233 40.2607 19.0177 39.9829 19.8952 39.4274C20.779 38.8655 21.4735 38.0448 21.9785 36.9653C22.4899 35.8794 22.7456 34.5473 22.7456 32.969Z" fill="white"/>
<path d="M68.4754 13.303C68.4754 15.3232 68.1155 17.0814 67.3958 18.5777C66.6761 20.0676 65.685 21.2229 64.4223 22.0436C63.166 22.858 61.7203 23.2652 60.0852 23.2652C58.4501 23.2652 57.0013 22.858 55.7386 22.0436C54.4823 21.2229 53.4943 20.0676 52.7746 18.5777C52.0612 17.0814 51.7045 15.3232 51.7045 13.303C51.7045 11.2828 52.0612 9.52778 52.7746 8.03788C53.4943 6.54167 54.4855 5.38636 55.7481 4.57197C57.0107 3.75126 58.4564 3.34091 60.0852 3.34091C61.7203 3.34091 63.166 3.75126 64.4223 4.57197C65.685 5.38636 66.6761 6.54167 67.3958 8.03788C68.1155 9.52778 68.4754 11.2828 68.4754 13.303ZM66.7519 13.303C66.7519 11.5669 66.4615 10.0802 65.8807 8.8428C65.2999 7.59912 64.5076 6.64899 63.5038 5.99242C62.5 5.33586 61.3605 5.00758 60.0852 5.00758C58.8163 5.00758 57.6799 5.33586 56.6761 5.99242C55.6723 6.64899 54.8769 7.59596 54.2898 8.83333C53.709 10.0707 53.4186 11.5606 53.4186 13.303C53.4186 15.0391 53.709 16.5259 54.2898 17.7633C54.8706 19.0006 55.6629 19.9508 56.6667 20.6136C57.6705 21.2702 58.81 21.5985 60.0852 21.5985C61.3605 21.5985 62.5 21.2702 63.5038 20.6136C64.5139 19.9571 65.3093 19.0101 65.8902 17.7727C66.471 16.529 66.7582 15.0391 66.7519 13.303ZM70.7765 5.19697V3.60606H84.839V5.19697H78.6932V23H76.9223V5.19697H70.7765ZM86.9981 27.7064V21.4091H88.2292C88.6774 20.9419 89.0909 20.3264 89.4697 19.5625C89.8485 18.7923 90.1641 17.8011 90.4167 16.589C90.6755 15.3706 90.8428 13.8491 90.9186 12.0246L91.3068 3.60606H102.396V21.4091H104.669V27.6591H102.983V23H88.6837V27.7064H86.9981ZM90.3504 21.4091H100.71V5.19697H92.9167L92.6136 12.0246C92.5442 13.5082 92.4148 14.8308 92.2254 15.9924C92.036 17.1477 91.7835 18.1736 91.4678 19.0701C91.1585 19.9602 90.786 20.7399 90.3504 21.4091ZM108.487 23V3.60606H119.737V5.19697H110.258V12.4981H119.141V14.089H110.258V21.4091H119.927V23H108.487ZM122.493 23V21.3617H123.004C123.806 21.3617 124.44 21.0966 124.908 20.5663C125.375 20.0297 125.719 19.1711 125.94 17.9905C126.161 16.81 126.306 15.2569 126.375 13.3314L126.716 3.60606H138.099V23H136.328V5.19697H128.402L128.089 13.7197C128.014 15.7715 127.824 17.4855 127.521 18.8617C127.218 20.2317 126.713 21.2639 126.006 21.9583C125.305 22.6528 124.314 23 123.033 23H122.493ZM154.493 23L147.817 13.8523H145.024V23H143.253V3.60606H145.024V12.2708H146.776L153.925 3.60606H156.027L148.84 12.3466L156.615 23H154.493ZM159.974 23H158.118L165.173 3.60606H167.067L174.122 23H172.266L166.186 5.9072H166.054L159.974 23ZM161.309 15.5663H170.93V17.1572H161.309V15.5663ZM50.7481 50V48.3617H51.2595C52.0612 48.3617 52.6957 48.0966 53.1629 47.5663C53.6301 47.0297 53.9741 46.1711 54.1951 44.9905C54.416 43.81 54.5612 42.2569 54.6307 40.3314L54.9716 30.6061H66.3542V50H64.5833V32.197H56.6572L56.3447 40.7197C56.2689 42.7715 56.0795 44.4855 55.7765 45.8617C55.4735 47.2317 54.9684 48.2639 54.2614 48.9583C53.5606 49.6528 52.5694 50 51.2879 50H50.7481ZM73.2789 30.6155V50.0095H71.508V30.6155H73.2789ZM77.6728 39.7443V41.3352H72.0194V39.7443H77.6728ZM93.866 40.303C93.866 42.3232 93.5062 44.0814 92.7865 45.5777C92.0668 47.0676 91.0756 48.2229 89.813 49.0436C88.5567 49.858 87.111 50.2652 85.4759 50.2652C83.8408 50.2652 82.3919 49.858 81.1293 49.0436C79.8729 48.2229 78.8849 47.0676 78.1652 45.5777C77.4519 44.0814 77.0952 42.3232 77.0952 40.303C77.0952 38.2828 77.4519 36.5278 78.1652 35.0379C78.8849 33.5417 79.8761 32.3864 81.1387 31.572C82.4014 30.7513 83.8471 30.3409 85.4759 30.3409C87.111 30.3409 88.5567 30.7513 89.813 31.572C91.0756 32.3864 92.0668 33.5417 92.7865 35.0379C93.5062 36.5278 93.866 38.2828 93.866 40.303ZM92.1425 40.303C92.1425 38.5669 91.8521 37.0802 91.2713 35.8428C90.6905 34.5991 89.8982 33.649 88.8944 32.9924C87.8906 32.3359 86.7511 32.0076 85.4759 32.0076C84.2069 32.0076 83.0705 32.3359 82.0668 32.9924C81.063 33.649 80.2675 34.596 79.6804 35.8333C79.0996 37.0707 78.8092 38.5606 78.8092 40.303C78.8092 42.0391 79.0996 43.5259 79.6804 44.7633C80.2612 46.0006 81.0535 46.9508 82.0573 47.6136C83.0611 48.2702 84.2006 48.5985 85.4759 48.5985C86.7511 48.5985 87.8906 48.2702 88.8944 47.6136C89.9045 46.9571 90.7 46.0101 91.2808 44.7727C91.8616 43.529 92.1488 42.0391 92.1425 40.303ZM109.389 50L102.713 40.8523H99.9195V50H98.1487V30.6061H99.9195V39.2708H101.671L108.821 30.6061H110.923L103.736 39.3466L111.51 50H109.389ZM129.067 36.6667H127.287C127.154 36.0038 126.914 35.3914 126.567 34.8295C126.226 34.2614 125.797 33.7658 125.279 33.3428C124.762 32.9198 124.175 32.5915 123.518 32.358C122.861 32.1244 122.151 32.0076 121.387 32.0076C120.163 32.0076 119.045 32.3264 118.035 32.964C117.031 33.6016 116.226 34.5391 115.62 35.7765C115.021 37.0076 114.721 38.5164 114.721 40.303C114.721 42.1023 115.021 43.6174 115.62 44.8485C116.226 46.0795 117.031 47.0139 118.035 47.6515C119.045 48.2828 120.163 48.5985 121.387 48.5985C122.151 48.5985 122.861 48.4817 123.518 48.2481C124.175 48.0145 124.762 47.6894 125.279 47.2727C125.797 46.8497 126.226 46.3542 126.567 45.786C126.914 45.2178 127.154 44.6023 127.287 43.9394H129.067C128.909 44.8295 128.613 45.6597 128.177 46.4299C127.748 47.1938 127.199 47.863 126.529 48.4375C125.866 49.012 125.103 49.4602 124.238 49.7822C123.373 50.1042 122.423 50.2652 121.387 50.2652C119.759 50.2652 118.313 49.858 117.05 49.0436C115.788 48.2229 114.796 47.0676 114.077 45.5777C113.363 44.0878 113.007 42.3295 113.007 40.303C113.007 38.2765 113.363 36.5183 114.077 35.0284C114.796 33.5385 115.788 32.3864 117.05 31.572C118.313 30.7513 119.759 30.3409 121.387 30.3409C122.423 30.3409 123.373 30.5019 124.238 30.8239C125.103 31.1395 125.866 31.5878 126.529 32.1686C127.199 32.7431 127.748 33.4122 128.177 34.1761C128.613 34.94 128.909 35.7702 129.067 36.6667Z" fill="white"/>
</svg>
