<svg width="144" height="35" viewBox="0 0 144 35" fill="none" xmlns="http://www.w3.org/2000/svg">
<path d="M57.7293 15.4211C56.6328 15.4211 55.6668 15.2253 54.8314 14.8337C54.009 14.429 53.3237 13.8938 52.7755 13.2281C52.2272 12.5624 51.8161 11.7922 51.5419 10.9176C51.2678 10.0431 51.1308 9.1228 51.1308 8.15685C51.1308 7.20395 51.2678 6.29021 51.5419 5.41563C51.8161 4.528 52.2272 3.75132 52.7755 3.0856C53.3237 2.40682 54.009 1.87163 54.8314 1.48003C55.6668 1.07537 56.6328 0.873047 57.7293 0.873047C58.8257 0.873047 59.7852 1.07537 60.6075 1.48003C61.4299 1.87163 62.1152 2.40682 62.6634 3.0856C63.2117 3.75132 63.6229 4.528 63.897 5.41563C64.1711 6.29021 64.3082 7.20395 64.3082 8.15685C64.3082 9.1228 64.1711 10.0431 63.897 10.9176C63.6229 11.7922 63.2117 12.5624 62.6634 13.2281C62.1152 13.8938 61.4299 14.429 60.6075 14.8337C59.7852 15.2253 58.8257 15.4211 57.7293 15.4211ZM57.7293 14.305C58.643 14.305 59.4327 14.1288 60.0985 13.7763C60.7642 13.4239 61.3059 12.9605 61.7236 12.3862C62.1544 11.7987 62.4676 11.1396 62.6634 10.4086C62.8723 9.67757 62.9767 8.927 62.9767 8.15685C62.9767 7.39975 62.8723 6.65571 62.6634 5.92472C62.4676 5.18067 62.1544 4.52147 61.7236 3.94712C61.3059 3.35972 60.7642 2.8898 60.0985 2.53736C59.4327 2.18491 58.643 2.00869 57.7293 2.00869C56.8025 2.00869 56.0062 2.18491 55.3405 2.53736C54.6748 2.8898 54.1265 3.35972 53.6958 3.94712C53.278 4.52147 52.9648 5.18067 52.7559 5.92472C52.5601 6.65571 52.4622 7.39975 52.4622 8.15685C52.4622 8.927 52.5601 9.67757 52.7559 10.4086C52.9648 11.1396 53.278 11.7987 53.6958 12.3862C54.1265 12.9605 54.6748 13.4239 55.3405 13.7763C56.0062 14.1288 56.8025 14.305 57.7293 14.305Z" fill="white"/>
<path d="M69.7556 2.30239H64.8997V1.16675H75.9625V2.30239H71.087V15.1469H69.7556V2.30239Z" fill="white"/>
<path d="M75.858 14.0113H77.3265C77.8225 13.0976 78.2076 12.1642 78.4817 11.2113C78.7558 10.2454 78.9582 9.28597 79.0887 8.33307C79.2323 7.38017 79.3171 6.45338 79.3433 5.55269C79.3824 4.65201 79.402 3.80354 79.402 3.00728V1.16675H88.0564V14.0113H89.7207V18.8672H88.3893V15.1469H77.1894V18.8672H75.858V14.0113ZM86.725 14.0113V2.30239H80.7334V2.77232C80.7334 3.55552 80.7204 4.41052 80.6943 5.33731C80.6812 6.25105 80.6094 7.19742 80.4789 8.17643C80.3484 9.15543 80.146 10.141 79.8719 11.133C79.6108 12.1251 79.2323 13.0845 78.7363 14.0113H86.725Z" fill="white"/>
<path d="M91.2836 1.16675H100.937V2.30239H92.615V7.35406H100.408V8.48971H92.615V14.0113H101.034V15.1469H91.2836V1.16675Z" fill="white"/>
<path d="M103.852 15.2644C103.773 15.2644 103.676 15.2579 103.558 15.2448C103.454 15.2318 103.343 15.2187 103.225 15.2057C103.108 15.1926 103.003 15.1731 102.912 15.1469C102.821 15.1339 102.755 15.1208 102.716 15.1078V13.9721C102.821 14.0244 102.977 14.0635 103.186 14.0896C103.408 14.1027 103.571 14.1092 103.676 14.1092C103.819 14.1092 103.989 14.0961 104.185 14.07C104.38 14.0309 104.583 13.9134 104.792 13.7176C105.014 13.5087 105.229 13.1889 105.438 12.7582C105.66 12.3144 105.849 11.6878 106.006 10.8785C106.175 10.0561 106.312 9.01837 106.417 7.76525C106.521 6.51212 106.573 4.97182 106.573 3.14434V1.16675H115.169V15.1469H113.838V2.30239H107.866V3.06602C107.866 5.10235 107.8 6.81887 107.67 8.21559C107.539 9.59925 107.363 10.7479 107.141 11.6617C106.919 12.5624 106.665 13.2607 106.378 13.7568C106.103 14.2397 105.816 14.5922 105.516 14.8141C105.229 15.036 104.935 15.1665 104.635 15.2057C104.348 15.2448 104.087 15.2644 103.852 15.2644Z" fill="white"/>
<path d="M117.991 1.16675H119.322V8.68551L127.448 1.16675H129.249L123.003 6.94288L129.543 15.1469H127.82L122.005 7.86315L119.322 10.3498V15.1469H117.991V1.16675Z" fill="white"/>
<path d="M136.75 1.16675H138.238L143.721 15.1469H142.292L140.588 10.8002H134.225L132.541 15.1469H131.131L136.75 1.16675ZM140.138 9.66452L137.436 2.4982L134.636 9.66452H140.138Z" fill="white"/>
<path d="M51.5224 34.8435C51.444 34.8435 51.3461 34.837 51.2287 34.824C51.1242 34.8109 51.0133 34.7979 50.8958 34.7848C50.7783 34.7718 50.6739 34.7522 50.5825 34.7261C50.4911 34.713 50.4259 34.7 50.3867 34.6869V33.5513C50.4911 33.6035 50.6478 33.6426 50.8566 33.6687C51.0785 33.6818 51.2417 33.6883 51.3461 33.6883C51.4897 33.6883 51.6594 33.6753 51.8552 33.6492C52.051 33.61 52.2534 33.4925 52.4622 33.2967C52.6841 33.0879 52.8995 32.7681 53.1084 32.3373C53.3303 31.8935 53.5195 31.2669 53.6762 30.4576C53.8459 29.6352 53.9829 28.5975 54.0874 27.3444C54.1918 26.0912 54.244 24.5509 54.244 22.7235V20.7459H62.8397V34.7261H61.5082V21.8815H55.5363V22.6451C55.5363 24.6815 55.471 26.398 55.3405 27.7947C55.21 29.1784 55.0337 30.3271 54.8118 31.2408C54.5899 32.1415 54.3354 32.8398 54.0482 33.3359C53.7741 33.8189 53.4869 34.1713 53.1867 34.3932C52.8995 34.6151 52.6058 34.7456 52.3056 34.7848C52.0184 34.824 51.7573 34.8435 51.5224 34.8435Z" fill="white"/>
<path d="M76.3911 35.0002C75.3599 35.0002 74.4527 34.8109 73.6695 34.4324C72.8863 34.0538 72.2205 33.5447 71.6723 32.9051C71.1371 32.2524 70.7259 31.5084 70.4387 30.673C70.1646 29.8245 70.0145 28.9304 69.9884 27.9905H66.9926V34.7261H65.6612V20.7459H66.9926V26.8549H70.0276C70.1059 25.9933 70.2952 25.1775 70.5954 24.4073C70.9087 23.6241 71.3329 22.9388 71.8681 22.3514C72.4033 21.764 73.0429 21.3006 73.7869 20.9612C74.544 20.6219 75.4121 20.4522 76.3911 20.4522C77.4354 20.4522 78.3556 20.6545 79.1519 21.0591C79.9481 21.4508 80.6139 21.9859 81.1491 22.6647C81.6842 23.3304 82.0889 24.1071 82.363 24.9947C82.6371 25.8693 82.7742 26.7831 82.7742 27.736C82.7742 28.7019 82.6371 29.6222 82.363 30.4968C82.0889 31.3713 81.6842 32.1415 81.1491 32.8072C80.6139 33.4729 79.9481 34.0081 79.1519 34.4128C78.3556 34.8044 77.4354 35.0002 76.3911 35.0002ZM76.3911 33.8841C77.2657 33.8841 78.0162 33.7079 78.6428 33.3555C79.2824 33.003 79.8046 32.5396 80.2092 31.9653C80.6269 31.3779 80.9337 30.7187 81.1295 29.9877C81.3383 29.2567 81.4428 28.5061 81.4428 27.736C81.4428 26.9789 81.3383 26.2348 81.1295 25.5038C80.9337 24.7598 80.6269 24.1006 80.2092 23.5262C79.8046 22.9388 79.2824 22.4689 78.6428 22.1165C78.0162 21.764 77.2657 21.5878 76.3911 21.5878C75.5165 21.5878 74.7594 21.764 74.1198 22.1165C73.4802 22.4689 72.9515 22.9388 72.5338 23.5262C72.1292 24.1006 71.8224 24.7598 71.6135 25.5038C71.4177 26.2348 71.3198 26.9789 71.3198 27.736C71.3198 28.5061 71.4177 29.2567 71.6135 29.9877C71.8224 30.7187 72.1292 31.3779 72.5338 31.9653C72.9515 32.5396 73.4802 33.003 74.1198 33.3555C74.7594 33.7079 75.5165 33.8841 76.3911 33.8841Z" fill="white"/>
<path d="M84.8589 20.7459H86.1903V28.2646L94.3161 20.7459H96.1174L89.8714 26.522L96.4111 34.7261H94.6881L88.8728 27.4423L86.1903 29.9289V34.7261H84.8589V20.7459Z" fill="white"/>
<path d="M103.488 35.0002C102.392 35.0002 101.426 34.8044 100.59 34.4128C99.7679 34.0081 99.0826 33.4729 98.5344 32.8072C97.9861 32.1415 97.5749 31.3713 97.3008 30.4968C97.0267 29.6222 96.8896 28.7019 96.8896 27.736C96.8896 26.7831 97.0267 25.8693 97.3008 24.9947C97.5749 24.1071 97.9861 23.3304 98.5344 22.6647C99.0826 21.9859 99.7679 21.4508 100.59 21.0591C101.426 20.6545 102.392 20.4522 103.488 20.4522C104.154 20.4522 104.8 20.5501 105.427 20.7459C106.066 20.9417 106.641 21.2354 107.15 21.627C107.672 22.0055 108.103 22.4754 108.442 23.0367C108.794 23.598 109.016 24.2442 109.108 24.9752H107.776C107.659 24.44 107.463 23.9635 107.189 23.5458C106.928 23.1151 106.601 22.7561 106.21 22.4689C105.831 22.1817 105.407 21.9664 104.937 21.8228C104.48 21.6661 103.997 21.5878 103.488 21.5878C102.561 21.5878 101.765 21.764 101.099 22.1165C100.434 22.4689 99.8854 22.9388 99.4546 23.5262C99.0369 24.1006 98.7236 24.7598 98.5148 25.5038C98.319 26.2348 98.2211 26.9789 98.2211 27.736C98.2211 28.5061 98.319 29.2567 98.5148 29.9877C98.7236 30.7187 99.0369 31.3779 99.4546 31.9653C99.8854 32.5396 100.434 33.003 101.099 33.3555C101.765 33.7079 102.561 33.8841 103.488 33.8841C104.128 33.8841 104.709 33.7666 105.231 33.5317C105.766 33.2967 106.223 32.9769 106.601 32.5723C106.98 32.1676 107.287 31.6977 107.522 31.1625C107.757 30.6142 107.907 30.0268 107.972 29.4003H109.303C109.212 30.2618 109.01 31.0385 108.696 31.7303C108.383 32.4221 107.978 33.0095 107.482 33.4925C106.986 33.9755 106.399 34.3475 105.72 34.6086C105.055 34.8697 104.31 35.0002 103.488 35.0002Z" fill="white"/>
<path d="M25.4615 0L39.1018 34.7109L21.392 2.71784L0 34.7109L25.4615 0Z" fill="white"/>
</svg>
