<svg width="109" height="27" viewBox="0 0 109 27" fill="none" xmlns="http://www.w3.org/2000/svg">
<path d="M43.546 12.0658C42.7236 12.0658 41.9991 11.919 41.3726 11.6252C40.7558 11.3218 40.2418 10.9204 39.8306 10.4211C39.4195 9.92178 39.1111 9.34417 38.9055 8.68823C38.6999 8.0323 38.5971 7.3421 38.5971 6.61764C38.5971 5.90296 38.6999 5.21766 38.9055 4.56172C39.1111 3.896 39.4195 3.31349 39.8306 2.8142C40.2418 2.30512 40.7558 1.90372 41.3726 1.61002C41.9991 1.30653 42.7236 1.15479 43.546 1.15479C44.3683 1.15479 45.0879 1.30653 45.7047 1.61002C46.3214 1.90372 46.8354 2.30512 47.2466 2.8142C47.6578 3.31349 47.9662 3.896 48.1718 4.56172C48.3774 5.21766 48.4802 5.90296 48.4802 6.61764C48.4802 7.3421 48.3774 8.0323 48.1718 8.68823C47.9662 9.34417 47.6578 9.92178 47.2466 10.4211C46.8354 10.9204 46.3214 11.3218 45.7047 11.6252C45.0879 11.919 44.3683 12.0658 43.546 12.0658ZM43.546 11.2288C44.2313 11.2288 44.8236 11.0966 45.3229 10.8323C45.8222 10.5679 46.2284 10.2204 46.5417 9.78961C46.8648 9.34906 47.0998 8.85466 47.2466 8.30642C47.4033 7.75818 47.4816 7.19525 47.4816 6.61764C47.4816 6.04981 47.4033 5.49178 47.2466 4.94354C47.0998 4.3855 46.8648 3.89111 46.5417 3.46034C46.2284 3.01979 45.8222 2.66735 45.3229 2.40302C44.8236 2.13869 44.2313 2.00652 43.546 2.00652C42.8509 2.00652 42.2537 2.13869 41.7544 2.40302C41.2551 2.66735 40.8439 3.01979 40.5208 3.46034C40.2076 3.89111 39.9726 4.3855 39.816 4.94354C39.6691 5.49178 39.5957 6.04981 39.5957 6.61764C39.5957 7.19525 39.6691 7.75818 39.816 8.30642C39.9726 8.85466 40.2076 9.34906 40.5208 9.78961C40.8439 10.2204 41.2551 10.5679 41.7544 10.8323C42.2537 11.0966 42.8509 11.2288 43.546 11.2288Z" fill="white"/>
<path d="M52.5657 2.2268H48.9238V1.37506H57.2209V2.2268H53.5643V11.8602H52.5657V2.2268Z" fill="white"/>
<path d="M57.1425 11.0085H58.2439C58.6159 10.3232 58.9047 9.62318 59.1103 8.90851C59.3159 8.18404 59.4677 7.46448 59.5656 6.7498C59.6732 6.03513 59.7369 5.34003 59.7565 4.66452C59.7858 3.98901 59.8005 3.35265 59.8005 2.75546V1.37506H66.2913V11.0085H67.5396V14.6504H66.541V11.8602H58.1411V14.6504H57.1425V11.0085ZM65.2927 11.0085V2.2268H60.7991V2.57924C60.7991 3.16664 60.7893 3.80789 60.7697 4.50298C60.7599 5.18829 60.7061 5.89807 60.6082 6.63232C60.5103 7.36657 60.3586 8.10572 60.153 8.84977C59.9572 9.59381 59.6732 10.3134 59.3012 11.0085H65.2927Z" fill="white"/>
<path d="M68.7117 1.37506H75.9515V2.2268H69.7103V6.01555H75.555V6.86728H69.7103V11.0085H76.0249V11.8602H68.7117V1.37506Z" fill="white"/>
<path d="M78.1378 11.9483C78.0791 11.9483 78.0057 11.9434 77.9176 11.9336C77.8393 11.9238 77.756 11.9141 77.6679 11.9043C77.5798 11.8945 77.5015 11.8798 77.433 11.8602C77.3644 11.8504 77.3155 11.8406 77.2861 11.8308V10.9791C77.3644 11.0183 77.4819 11.0476 77.6386 11.0672C77.805 11.077 77.9274 11.0819 78.0057 11.0819C78.1134 11.0819 78.2406 11.0721 78.3875 11.0525C78.5343 11.0232 78.6861 10.9351 78.8427 10.7882C79.0092 10.6316 79.1707 10.3917 79.3273 10.0686C79.4938 9.73577 79.6357 9.26585 79.7532 8.65886C79.8805 8.04209 79.9833 7.26378 80.0616 6.32393C80.1399 5.38409 80.1791 4.22886 80.1791 2.85825V1.37506H86.6258V11.8602H85.6272V2.2268H81.1483V2.79951C81.1483 4.32676 81.0993 5.61415 81.0014 6.66169C80.9035 7.69944 80.7714 8.56096 80.6049 9.24627C80.4385 9.92178 80.2476 10.4455 80.0322 10.8176C79.8266 11.1798 79.6113 11.4441 79.3861 11.6106C79.1707 11.777 78.9504 11.8749 78.7253 11.9043C78.5099 11.9336 78.3141 11.9483 78.1378 11.9483Z" fill="white"/>
<path d="M88.742 1.37506H89.7406V7.01413L95.8349 1.37506H97.1859L92.5014 5.70716L97.4062 11.8602H96.1139L91.7524 6.39736L89.7406 8.26236V11.8602H88.742V1.37506Z" fill="white"/>
<path d="M102.812 1.37506H103.928L108.04 11.8602H106.968L105.69 8.60012H100.917L99.6545 11.8602H98.5972L102.812 1.37506ZM105.352 7.74839L103.326 2.37365L101.226 7.74839H105.352Z" fill="white"/>
<path d="M38.8908 26.6327C38.8321 26.6327 38.7586 26.6278 38.6705 26.618C38.5922 26.6082 38.509 26.5984 38.4209 26.5886C38.3328 26.5788 38.2544 26.5641 38.1859 26.5445C38.1174 26.5348 38.0684 26.525 38.0391 26.5152V25.6634C38.1174 25.7026 38.2349 25.732 38.3915 25.7516C38.5579 25.7613 38.6803 25.7662 38.7586 25.7662C38.8663 25.7662 38.9936 25.7564 39.1404 25.7369C39.2873 25.7075 39.439 25.6194 39.5957 25.4725C39.7621 25.3159 39.9236 25.076 40.0803 24.753C40.2467 24.4201 40.3887 23.9502 40.5062 23.3432C40.6334 22.7264 40.7362 21.9481 40.8145 21.0083C40.8929 20.0684 40.932 18.9132 40.932 17.5426V16.0594H47.3788V26.5445H46.3802V16.9111H41.9012V17.4839C41.9012 19.0111 41.8523 20.2985 41.7544 21.346C41.6565 22.3838 41.5243 23.2453 41.3579 23.9306C41.1915 24.6061 41.0006 25.1299 40.7852 25.5019C40.5796 25.8641 40.3642 26.1285 40.139 26.2949C39.9236 26.4613 39.7034 26.5592 39.4782 26.5886C39.2628 26.618 39.067 26.6327 38.8908 26.6327Z" fill="white"/>
<path d="M57.5423 26.7501C56.7689 26.7501 56.0885 26.6082 55.5011 26.3243C54.9137 26.0404 54.4144 25.6585 54.0032 25.1788C53.6018 24.6893 53.2935 24.1313 53.0781 23.5047C52.8725 22.8684 52.7599 22.1978 52.7403 21.4929H50.4935V26.5445H49.4949V16.0594H50.4935V20.6411H52.7697C52.8284 19.995 52.9704 19.3831 53.1956 18.8055C53.4305 18.2181 53.7487 17.7041 54.1501 17.2636C54.5515 16.823 55.0312 16.4755 55.5892 16.2209C56.1571 15.9664 56.8081 15.8391 57.5423 15.8391C58.3255 15.8391 59.0157 15.9909 59.6129 16.2944C60.2101 16.5881 60.7094 16.9895 61.1108 17.4985C61.5122 17.9978 61.8157 18.5803 62.0213 19.2461C62.2269 19.902 62.3297 20.5873 62.3297 21.302C62.3297 22.0264 62.2269 22.7166 62.0213 23.3726C61.8157 24.0285 61.5122 24.6061 61.1108 25.1054C60.7094 25.6047 60.2101 26.0061 59.6129 26.3096C59.0157 26.6033 58.3255 26.7501 57.5423 26.7501ZM57.5423 25.9131C58.1983 25.9131 58.7612 25.7809 59.2311 25.5166C59.7108 25.2523 60.1024 24.9047 60.4059 24.474C60.7192 24.0334 60.9493 23.539 61.0961 22.9908C61.2528 22.4425 61.3311 21.8796 61.3311 21.302C61.3311 20.7341 61.2528 20.1761 61.0961 19.6279C60.9493 19.0698 60.7192 18.5754 60.4059 18.1447C60.1024 17.7041 59.7108 17.3517 59.2311 17.0874C58.7612 16.823 58.1983 16.6909 57.5423 16.6909C56.8864 16.6909 56.3186 16.823 55.8389 17.0874C55.3592 17.3517 54.9627 17.7041 54.6494 18.1447C54.3459 18.5754 54.1158 19.0698 53.9592 19.6279C53.8123 20.1761 53.7389 20.7341 53.7389 21.302C53.7389 21.8796 53.8123 22.4425 53.9592 22.9908C54.1158 23.539 54.3459 24.0334 54.6494 24.474C54.9627 24.9047 55.3592 25.2523 55.8389 25.5166C56.3186 25.7809 56.8864 25.9131 57.5423 25.9131Z" fill="white"/>
<path d="M63.8932 16.0594H64.8918V21.6985L70.9861 16.0594H72.3371L67.6526 20.3915L72.5574 26.5445H71.2651L66.9036 21.0817L64.8918 22.9467V26.5445H63.8932V16.0594Z" fill="white"/>
<path d="M77.8651 26.7501C77.0428 26.7501 76.3183 26.6033 75.6917 26.3096C75.075 26.0061 74.561 25.6047 74.1498 25.1054C73.7386 24.6061 73.4302 24.0285 73.2246 23.3726C73.019 22.7166 72.9162 22.0264 72.9162 21.302C72.9162 20.5873 73.019 19.902 73.2246 19.2461C73.4302 18.5803 73.7386 17.9978 74.1498 17.4985C74.561 16.9895 75.075 16.5881 75.6917 16.2944C76.3183 15.9909 77.0428 15.8391 77.8651 15.8391C78.3644 15.8391 78.849 15.9125 79.3189 16.0594C79.7987 16.2063 80.2294 16.4265 80.6112 16.7202C81.0028 17.0041 81.3259 17.3566 81.5804 17.7776C81.8448 18.1985 82.0112 18.6831 82.0797 19.2314H81.0812C80.993 18.83 80.8462 18.4726 80.6406 18.1594C80.4448 17.8363 80.2001 17.5671 79.9063 17.3517C79.6224 17.1363 79.3043 16.9748 78.9518 16.8671C78.6092 16.7496 78.2469 16.6909 77.8651 16.6909C77.17 16.6909 76.5728 16.823 76.0735 17.0874C75.5742 17.3517 75.1631 17.7041 74.84 18.1447C74.5267 18.5754 74.2918 19.0698 74.1351 19.6279C73.9883 20.1761 73.9148 20.7341 73.9148 21.302C73.9148 21.8796 73.9883 22.4425 74.1351 22.9908C74.2918 23.539 74.5267 24.0334 74.84 24.474C75.1631 24.9047 75.5742 25.2523 76.0735 25.5166C76.5728 25.7809 77.17 25.9131 77.8651 25.9131C78.3448 25.9131 78.7805 25.825 79.1721 25.6488C79.5735 25.4725 79.9161 25.2327 80.2 24.9292C80.484 24.6257 80.714 24.2733 80.8902 23.8719C81.0665 23.4607 81.1791 23.0201 81.228 22.5502H82.2266C82.1581 23.1964 82.0063 23.7789 81.7714 24.2977C81.5364 24.8166 81.2329 25.2572 80.8609 25.6194C80.4889 25.9816 80.0483 26.2606 79.5392 26.4564C79.0399 26.6522 78.4819 26.7501 77.8651 26.7501Z" fill="white"/>
<path d="M19.3461 0.5L29.5763 26.5331L16.294 2.53838L0.25 26.5331L19.3461 0.5Z" fill="white"/>
</svg>
