<svg width="91" height="22" viewBox="0 0 91 22" fill="none" xmlns="http://www.w3.org/2000/svg">
<path d="M36.2872 9.69326C35.598 9.69326 34.9908 9.57019 34.4657 9.32404C33.9488 9.06968 33.518 8.73328 33.1734 8.31483C32.8288 7.89637 32.5703 7.41228 32.398 6.86255C32.2257 6.31282 32.1396 5.73436 32.1396 5.1272C32.1396 4.52824 32.2257 3.95389 32.398 3.40416C32.5703 2.84622 32.8288 2.35802 33.1734 1.93957C33.518 1.51291 33.9488 1.17651 34.4657 0.930359C34.9908 0.676005 35.598 0.548828 36.2872 0.548828C36.9764 0.548828 37.5794 0.676005 38.0964 0.930359C38.6133 1.17651 39.044 1.51291 39.3886 1.93957C39.7333 2.35802 39.9917 2.84622 40.164 3.40416C40.3363 3.95389 40.4225 4.52824 40.4225 5.1272C40.4225 5.73436 40.3363 6.31282 40.164 6.86255C39.9917 7.41228 39.7333 7.89637 39.3886 8.31483C39.044 8.73328 38.6133 9.06968 38.0964 9.32404C37.5794 9.57019 36.9764 9.69326 36.2872 9.69326ZM36.2872 8.99174C36.8615 8.99174 37.3579 8.88097 37.7764 8.65943C38.1948 8.4379 38.5353 8.14662 38.7979 7.78561C39.0687 7.41638 39.2656 7.00203 39.3886 6.54255C39.5199 6.08308 39.5856 5.61129 39.5856 5.1272C39.5856 4.65131 39.5199 4.18363 39.3886 3.72415C39.2656 3.25647 39.0687 2.84212 38.7979 2.4811C38.5353 2.11187 38.1948 1.81649 37.7764 1.59496C37.3579 1.37343 36.8615 1.26266 36.2872 1.26266C35.7046 1.26266 35.2041 1.37343 34.7857 1.59496C34.3672 1.81649 34.0226 2.11187 33.7518 2.4811C33.4893 2.84212 33.2924 3.25647 33.1611 3.72415C33.038 4.18363 32.9765 4.65131 32.9765 5.1272C32.9765 5.61129 33.038 6.08308 33.1611 6.54255C33.2924 7.00203 33.4893 7.41638 33.7518 7.78561C34.0226 8.14662 34.3672 8.4379 34.7857 8.65943C35.2041 8.88097 35.7046 8.99174 36.2872 8.99174Z" fill="white"/>
<path d="M43.8465 1.44727H40.7943V0.73344H47.748V1.44727H44.6834V9.52096H43.8465V1.44727Z" fill="white"/>
<path d="M47.6823 8.80712H48.6054C48.9172 8.23278 49.1592 7.64612 49.3315 7.04716C49.5038 6.43999 49.631 5.83693 49.7131 5.23796C49.8033 4.639 49.8566 4.05645 49.873 3.49031C49.8977 2.92417 49.91 2.39084 49.91 1.89034V0.73344H55.3499V8.80712H56.396V11.8594H55.5591V9.52096H48.5192V11.8594H47.6823V8.80712ZM54.513 8.80712V1.44727H50.7469V1.74265C50.7469 2.23495 50.7387 2.77237 50.7223 3.35493C50.7141 3.92927 50.6689 4.52413 50.5869 5.13951C50.5048 5.75488 50.3777 6.37435 50.2053 6.99793C50.0413 7.62151 49.8033 8.22457 49.4915 8.80712H54.513Z" fill="white"/>
<path d="M57.3784 0.73344H63.4459V1.44727H58.2153V4.62259H63.1136V5.33642H58.2153V8.80712H63.5075V9.52096H57.3784V0.73344Z" fill="white"/>
<path d="M65.2783 9.5948C65.2291 9.5948 65.1676 9.5907 65.0937 9.58249C65.0281 9.57429 64.9583 9.56608 64.8845 9.55788C64.8107 9.54967 64.745 9.53737 64.6876 9.52096C64.6301 9.51275 64.5891 9.50455 64.5645 9.49634V8.78251C64.6301 8.81533 64.7286 8.83994 64.8599 8.85635C64.9994 8.86456 65.1019 8.86866 65.1676 8.86866C65.2578 8.86866 65.3645 8.86046 65.4876 8.84405C65.6106 8.81943 65.7378 8.74559 65.8691 8.62251C66.0086 8.49123 66.144 8.29021 66.2752 8.01945C66.4147 7.74048 66.5337 7.34664 66.6322 6.83793C66.7388 6.32102 66.825 5.66873 66.8906 4.88105C66.9562 4.09337 66.9891 3.12519 66.9891 1.97649V0.73344H72.392V9.52096H71.5551V1.44727H67.8014V1.92726C67.8014 3.20724 67.7603 4.28619 67.6783 5.16412C67.5962 6.03385 67.4855 6.75588 67.346 7.33023C67.2065 7.89637 67.0465 8.33534 66.866 8.64713C66.6937 8.95071 66.5132 9.17225 66.3245 9.31173C66.144 9.45121 65.9593 9.53326 65.7706 9.55788C65.5901 9.58249 65.426 9.5948 65.2783 9.5948Z" fill="white"/>
<path d="M74.1656 0.73344H75.0025V5.4595L80.1101 0.73344H81.2423L77.3163 4.36414L81.427 9.52096H80.3439L76.6886 4.94259L75.0025 6.50563V9.52096H74.1656V0.73344Z" fill="white"/>
<path d="M85.9574 0.73344H86.8927L90.3388 9.52096H89.4404L88.3696 6.7887H84.3697L83.3113 9.52096H82.4251L85.9574 0.73344ZM88.0866 6.07487L86.3881 1.57035L84.6282 6.07487H88.0866Z" fill="white"/>
<path d="M32.3857 21.9016C32.3365 21.9016 32.2749 21.8975 32.2011 21.8893C32.1355 21.8811 32.0657 21.8729 31.9919 21.8647C31.918 21.8565 31.8524 21.8442 31.7949 21.8278C31.7375 21.8196 31.6965 21.8114 31.6719 21.8032V21.0893C31.7375 21.1222 31.836 21.1468 31.9673 21.1632C32.1067 21.1714 32.2093 21.1755 32.2749 21.1755C32.3652 21.1755 32.4719 21.1673 32.5949 21.1509C32.718 21.1263 32.8452 21.0524 32.9765 20.9293C33.1159 20.7981 33.2513 20.597 33.3826 20.3263C33.5221 20.0473 33.6411 19.6535 33.7395 19.1448C33.8462 18.6278 33.9323 17.9755 33.998 17.1879C34.0636 16.4002 34.0964 15.432 34.0964 14.2833V13.0403H39.4994V21.8278H38.6625V13.7541H34.9087V14.2341C34.9087 15.5141 34.8677 16.593 34.7857 17.4709C34.7036 18.3407 34.5928 19.0627 34.4534 19.6371C34.3139 20.2032 34.1539 20.6422 33.9734 20.9539C33.8011 21.2575 33.6206 21.4791 33.4318 21.6186C33.2513 21.758 33.0667 21.8401 32.878 21.8647C32.6975 21.8893 32.5334 21.9016 32.3857 21.9016Z" fill="white"/>
<path d="M48.0174 22.0001C47.3692 22.0001 46.799 21.8811 46.3067 21.6432C45.8144 21.4052 45.3959 21.0852 45.0513 20.6832C44.7149 20.2729 44.4565 19.8053 44.276 19.2801C44.1036 18.7468 44.0093 18.1848 43.9929 17.594H42.1098V21.8278H41.2729V13.0403H42.1098V16.8802H44.0175C44.0667 16.3387 44.1857 15.8258 44.3744 15.3418C44.5713 14.8495 44.838 14.4187 45.1744 14.0495C45.5108 13.6802 45.9128 13.389 46.3805 13.1756C46.8564 12.9623 47.402 12.8557 48.0174 12.8557C48.6738 12.8557 49.2523 12.9828 49.7528 13.2372C50.2533 13.4833 50.6717 13.8197 51.0081 14.2464C51.3445 14.6648 51.5989 15.153 51.7712 15.711C51.9435 16.2607 52.0296 16.8351 52.0296 17.434C52.0296 18.0412 51.9435 18.6196 51.7712 19.1694C51.5989 19.7191 51.3445 20.2032 51.0081 20.6216C50.6717 21.0401 50.2533 21.3765 49.7528 21.6309C49.2523 21.877 48.6738 22.0001 48.0174 22.0001ZM48.0174 21.2986C48.5671 21.2986 49.0389 21.1878 49.4328 20.9663C49.8348 20.7447 50.163 20.4534 50.4174 20.0924C50.6799 19.7232 50.8727 19.3089 50.9958 18.8494C51.1271 18.3899 51.1927 17.9181 51.1927 17.434C51.1927 16.9581 51.1271 16.4904 50.9958 16.031C50.8727 15.5633 50.6799 15.1489 50.4174 14.7879C50.163 14.4187 49.8348 14.1233 49.4328 13.9018C49.0389 13.6802 48.5671 13.5695 48.0174 13.5695C47.4677 13.5695 46.9918 13.6802 46.5898 13.9018C46.1877 14.1233 45.8554 14.4187 45.5928 14.7879C45.3385 15.1489 45.1457 15.5633 45.0144 16.031C44.8913 16.4904 44.8298 16.9581 44.8298 17.434C44.8298 17.9181 44.8913 18.3899 45.0144 18.8494C45.1457 19.3089 45.3385 19.7232 45.5928 20.0924C45.8554 20.4534 46.1877 20.7447 46.5898 20.9663C46.9918 21.1878 47.4677 21.2986 48.0174 21.2986Z" fill="white"/>
<path d="M53.34 13.0403H54.1769V17.7663L59.2845 13.0403H60.4168L56.4907 16.671L60.6014 21.8278H59.5183L55.863 17.2494L54.1769 18.8125V21.8278H53.34V13.0403Z" fill="white"/>
<path d="M65.0498 22.0001C64.3605 22.0001 63.7534 21.877 63.2283 21.6309C62.7113 21.3765 62.2806 21.0401 61.936 20.6216C61.5914 20.2032 61.3329 19.7191 61.1606 19.1694C60.9883 18.6196 60.9022 18.0412 60.9022 17.434C60.9022 16.8351 60.9883 16.2607 61.1606 15.711C61.3329 15.153 61.5914 14.6648 61.936 14.2464C62.2806 13.8197 62.7113 13.4833 63.2283 13.2372C63.7534 12.9828 64.3605 12.8557 65.0498 12.8557C65.4682 12.8557 65.8744 12.9172 66.2682 13.0403C66.6702 13.1633 67.0313 13.3479 67.3513 13.5941C67.6795 13.832 67.9502 14.1274 68.1635 14.4802C68.3851 14.833 68.5246 15.2392 68.582 15.6987H67.7451C67.6712 15.3623 67.5482 15.0628 67.3759 14.8002C67.2118 14.5295 67.0066 14.3038 66.7605 14.1233C66.5226 13.9428 66.2559 13.8074 65.9605 13.7172C65.6733 13.6187 65.3698 13.5695 65.0498 13.5695C64.4672 13.5695 63.9667 13.6802 63.5483 13.9018C63.1298 14.1233 62.7852 14.4187 62.5144 14.7879C62.2519 15.1489 62.055 15.5633 61.9237 16.031C61.8006 16.4904 61.7391 16.9581 61.7391 17.434C61.7391 17.9181 61.8006 18.3899 61.9237 18.8494C62.055 19.3089 62.2519 19.7232 62.5144 20.0924C62.7852 20.4534 63.1298 20.7447 63.5483 20.9663C63.9667 21.1878 64.4672 21.2986 65.0498 21.2986C65.4518 21.2986 65.8169 21.2247 66.1451 21.077C66.4815 20.9293 66.7687 20.7283 67.0066 20.474C67.2446 20.2196 67.4374 19.9242 67.5851 19.5878C67.7328 19.2432 67.8271 18.874 67.8682 18.4802H68.7051C68.6476 19.0217 68.5205 19.5099 68.3235 19.9447C68.1266 20.3796 67.8723 20.7488 67.5605 21.0524C67.2487 21.356 66.8795 21.5898 66.4528 21.7539C66.0344 21.918 65.5667 22.0001 65.0498 22.0001Z" fill="white"/>
<path d="M16.0043 0L24.5782 21.8182L13.4463 1.70835L0 21.8182L16.0043 0Z" fill="white"/>
</svg>
