<svg width="486" height="424" viewBox="0 0 486 424" fill="none" xmlns="http://www.w3.org/2000/svg">
<g clip-path="url(#clip0_413_1038)">
<path d="M485.211 363.906C485.211 374.543 482.219 384.404 477.426 393.08L324.225 221.67L475.765 89.0864C481.66 98.4414 485.211 109.43 485.211 121.305V363.906ZM242.606 252.793L453.469 68.2934C444.816 63.5564 435.072 60.6514 424.561 60.6514H60.651C50.127 60.6514 40.38 63.5564 31.762 68.2934L242.606 252.793ZM301.393 241.631L252.584 284.365C249.729 286.852 246.174 288.094 242.606 288.094C239.036 288.094 235.481 286.852 232.626 284.365L183.806 241.629L28.667 415.23C37.966 421.064 48.864 424.559 60.65 424.559H424.561C436.345 424.559 447.248 421.064 456.544 415.23L301.393 241.631ZM9.448 89.0854C3.554 98.4404 0 109.429 0 121.305V363.907C0 374.544 2.978 384.405 7.789 393.081L160.972 221.641L9.448 89.0854Z" fill="#303030"/>
</g>
<defs>
<clipPath id="clip0_413_1038">
<rect width="485.211" height="485.211" fill="white"/>
</clipPath>
</defs>
</svg>
