<svg width="18" height="18" viewBox="0 0 141 141" fill="none" xmlns="http://www.w3.org/2000/svg">
<path d="M2.97363 139.87C4.87383 134.17 6.66387 128.827 8.45391 123.485C10.2439 118.197 11.8412 112.827 13.8791 107.622C14.9256 104.978 14.5951 102.996 13.2732 100.517C6.05801 87.1331 3.90996 72.7852 6.41602 57.8591C8.53652 45.2186 13.9066 34.0378 22.5814 24.5368C36.8742 8.92215 54.7195 1.43152 75.8145 2.31277C91.2639 2.94617 104.923 8.59168 116.572 18.8087C127.423 28.3096 134.5 40.1239 137.777 54.1688C140.421 65.4874 140.118 76.7509 136.869 87.9042C132.738 102.032 124.834 113.681 113.075 122.548C96.7441 134.886 78.4307 138.714 58.4648 134.831C52.4613 133.674 46.7332 131.526 41.3355 128.607C40.4543 128.139 39.7107 128.029 38.7469 128.359C28.5023 131.664 18.2303 134.941 7.98574 138.218C6.44355 138.714 4.87383 139.237 2.97363 139.87ZM20.4059 122.603C20.9566 122.466 21.2045 122.411 21.4523 122.328C27.8689 120.29 34.2855 118.225 40.7297 116.242C41.3355 116.049 42.1617 116.214 42.74 116.49C45.5215 117.867 48.1928 119.519 51.0568 120.731C62.8436 125.715 74.9883 126.514 87.2707 123.099C101.921 118.996 113.157 110.266 120.841 97.0747C127.423 85.7837 129.681 73.5839 127.643 60.7507C125.054 44.42 116.682 31.5868 102.83 22.4714C90.8232 14.5952 77.6045 11.9239 63.5045 14.1546C51.3598 16.0823 40.9775 21.6177 32.4129 30.4852C25.06 38.086 20.1305 47.0637 17.9824 57.3909C14.9256 72.1794 17.1838 86.1692 25.3904 98.9198C27.0428 101.481 26.9877 103.436 25.9963 106.052C23.9859 111.423 22.3061 116.903 20.4059 122.603Z" fill="#00000"/>
<path d="M107.209 88.6197C107.126 93.9347 104.62 97.983 99.5528 100.517C94.5682 102.995 89.5011 103.628 84.2962 101.591C79.6145 99.7455 74.8778 97.9554 70.3614 95.7248C64.413 92.7781 59.5386 88.3718 55.0772 83.4974C50.1477 78.0998 45.9618 72.0962 42.5194 65.6796C40.0684 61.1357 38.5813 56.3164 39.1046 51.0289C39.6554 45.4109 42.2716 40.922 46.6778 37.5347C47.5591 36.8738 48.8809 36.5708 50.01 36.4607C51.4696 36.3505 52.9292 36.5708 54.3888 36.681C55.6005 36.7912 56.2614 37.6449 56.6745 38.6363C57.7485 41.28 58.7124 43.9238 59.7313 46.5951C60.4198 48.3851 60.943 50.2578 61.7692 51.9927C62.7882 54.1408 62.1548 55.9308 60.8329 57.5832C59.7038 58.9876 58.5196 60.3371 57.2253 61.5488C56.1513 62.5677 55.9585 63.6142 56.6745 64.8535C59.8415 70.499 63.697 75.5662 68.7917 79.6695C72.1514 82.3683 75.8692 84.3787 79.7247 86.2513C80.8538 86.8021 81.9553 86.7195 82.8366 85.7005C84.7368 83.525 86.6645 81.3769 88.5372 79.1738C89.7489 77.7693 90.3548 77.4939 91.9796 78.3201C96.6887 80.6884 101.343 83.1394 106.024 85.5904C107.126 86.1962 107.401 87.1876 107.209 88.6197Z" fill="#303030"/>
</svg>
